<?xml version="1.0" encoding="UTF-8"?>
<svg width="19px" height="19px" viewBox="0 0 19 19" version="1.1" xmlns="http://www.w3.org/2000/svg" xmlns:xlink="http://www.w3.org/1999/xlink">
    <!-- Generator: Sketch 50.2 (55047) - http://www.bohemiancoding.com/sketch -->
    <title>instagram</title>
    <desc>Created with Sketch.</desc>
    <defs></defs>
    <g id="Symbols" stroke="none" stroke-width="1" fill="none" fill-rule="evenodd">
        <g id="Footer" transform="translate(-1125.000000, -399.000000)" fill="#FFFFFF" fill-rule="nonzero">
            <g id="Social" transform="translate(1075.000000, 398.000000)">
                <path d="M63.7565745,1 L55.2432007,1 C52.3521016,1 50,3.35221398 50,6.2433131 L50,14.7566869 C50,17.6478984 52.3521016,20 55.2432007,20 L63.7565745,20 C66.6478984,20 69,17.647786 69,14.7566869 L69,6.2433131 C69.0001124,3.35221398 66.6478984,1 63.7565745,1 Z M67.3143403,14.7566869 C67.3143403,16.7183637 65.7183637,18.3142279 63.7566869,18.3142279 L55.2432007,18.3142279 C53.2816363,18.3143403 51.6857721,16.7183637 51.6857721,14.7566869 L51.6857721,6.2433131 C51.6857721,4.28174871 53.2816363,2.68577208 55.2432007,2.68577208 L63.7565745,2.68577208 C65.7182513,2.68577208 67.3142279,4.28174871 67.3142279,6.2433131 L67.3142279,14.7566869 L67.3143403,14.7566869 Z M59.5,5.75 C56.8808106,5.75 54.75,7.88085946 54.75,10.500109 C54.75,13.1192496 56.8808106,15.25 59.5,15.25 C62.1191894,15.25 64.25,13.1192496 64.25,10.500109 C64.25,7.88085946 62.1191894,5.75 59.5,5.75 Z M59.5,13.6142911 C57.7827686,13.6142911 56.3855623,12.2172708 56.3855623,10.5 C56.3855623,8.78262017 57.7826596,7.38549079 59.5,7.38549079 C61.2173404,7.38549079 62.6144377,8.78262017 62.6144377,10.5 C62.6144377,12.2172708 61.2172314,13.6142911 59.5,13.6142911 Z M64.25,4.5625 C63.9380114,4.5625 63.6315284,4.68880682 63.4111932,4.91011364 C63.1897784,5.13034091 63.0625,5.43693182 63.0625,5.75 C63.0625,6.06209659 63.1898864,6.36857955 63.4111932,6.58988636 C63.6314205,6.81011364 63.9380114,6.9375 64.25,6.9375 C64.5630682,6.9375 64.8685795,6.81011364 65.0898864,6.58988636 C65.3111932,6.36857955 65.4375,6.06198864 65.4375,5.75 C65.4375,5.43693182 65.3111932,5.13034091 65.0898864,4.91011364 C64.8696591,4.68880682 64.5630682,4.5625 64.25,4.5625 Z" id="instagram"></path>
            </g>
        </g>
    </g>
</svg>