<svg width="200" height="31" viewBox="0 0 200 31" xmlns="http://www.w3.org/2000/svg"><title></title><g fill="none" fill-rule="evenodd"><path fill="#FFF" d="M21.737 24.403h4.398V.712h-4.398zM53.815.712l-9.511 23.69h-3.958L30.834.713h3.518c.38 0 .69.092.929.278.238.186.418.426.537.721l5.554 14.45c.185.47.36.986.53 1.549.167.563.328 1.15.48 1.761.13-.611.271-1.198.423-1.761.152-.563.32-1.079.505-1.548l5.522-14.45c.086-.252.257-.481.512-.689.256-.207.568-.311.937-.311h3.534zM99.537 4.333h-7.102v20.07h-4.38V4.333h-7.102V.712h18.584z"/><g fill="#20C2DA"><path d="M67.334 4.88c-3.985 0-7.228 3.26-7.228 7.27 0 4.008 3.243 7.269 7.228 7.269 3.986 0 7.23-3.261 7.23-7.27 0-4.008-3.244-7.27-7.23-7.27m0 18.708c-6.27 0-11.372-5.13-11.372-11.438 0-6.306 5.102-11.437 11.372-11.437s11.373 5.13 11.373 11.437c0 6.307-5.102 11.438-11.373 11.438"/><path d="M80.879 24.29l-2.552-1.281a1.203 1.203 0 0 0-.823-.08 1.29 1.29 0 0 0-.626.352l-.505.482a13.152 13.152 0 0 1-9.036 3.584 13.153 13.153 0 0 1-9.036-3.584l-.51-.482a1.291 1.291 0 0 0-.626-.353 1.202 1.202 0 0 0-.823.08L53.79 24.29s2.166 2.109 2.168 2.108a16.642 16.642 0 0 0 11.379 4.483A16.64 16.64 0 0 0 78.714 26.4l2.165-2.11z"/></g><path d="M12.17 10.075c-.195.54-.49 1-.887 1.376-.396.377-.893.667-1.49.869-.597.202-1.298.303-2.101.303H4.418V4.12h3.274c.814 0 1.52.095 2.117.286.597.191 1.091.467 1.482.828.391.36.684.797.88 1.31.195.514.293 1.087.293 1.72 0 .667-.098 1.27-.293 1.811m4.128-4.858a6.173 6.173 0 0 0-1.669-2.392c-.749-.666-1.7-1.185-2.85-1.556C10.629.898 9.266.712 7.692.712H.037L0 24.362l3.456-1.366c.346-.142.6-.36.76-.654.16-.293.233-.575.218-.844l-.016-5.435h3.274c1.53 0 2.869-.19 4.015-.573 1.145-.382 2.098-.918 2.858-1.606a6.541 6.541 0 0 0 1.71-2.466c.38-.955.57-2.006.57-3.153 0-1.104-.182-2.12-.546-3.048" fill="#FFF"/><path fill="#20C2DA" d="M111.782 13.793L104.155.651h2.605l6.192 11.205L119.144.651h2.606l-7.665 13.142v10.71h-2.303zM145.385 12.577c0-5.127-3.814-10.14-9.138-10.14-5.323 0-9.175 5.013-9.175 10.14 0 5.128 3.852 10.142 9.175 10.142 5.324 0 9.138-5.014 9.138-10.142m-20.842 0c0-6.722 4.908-12.42 11.704-12.42 6.797 0 11.667 5.698 11.667 12.42 0 6.723-4.87 12.42-11.667 12.42-6.796 0-11.704-5.697-11.704-12.42M166.15 11.514h8.495v8.774c-2.417 2.849-6.117 4.71-9.892 4.71-6.797 0-12.083-5.698-12.083-12.42 0-6.685 5.135-12.42 11.932-12.42 3.398 0 6.91 1.48 9.137 4.026l-1.926 1.595c-1.699-2.089-4.53-3.343-7.211-3.343-5.362 0-9.402 5.052-9.402 10.141 0 5.128 4.229 10.142 9.553 10.142 2.718 0 5.739-1.14 7.626-3.153v-5.849h-6.23v-2.203zM197.676 16.831V10.49c0-4.369-2.341-8.015-7.174-8.015-4.795 0-7.212 3.646-7.212 8.015v6.342h14.386zm-16.689-7.026c0-5.545 3.889-9.648 9.515-9.648 5.626 0 9.477 4.103 9.477 9.648v14.699h-2.303V19.11H183.29v5.394h-2.303v-14.7z"/></g></svg>