<?xml version="1.0" encoding="UTF-8"?>
<svg width="17px" height="21px" viewBox="0 0 17 21" version="1.1" xmlns="http://www.w3.org/2000/svg" xmlns:xlink="http://www.w3.org/1999/xlink">
    <!-- Generator: Sketch 50.2 (55047) - http://www.bohemiancoding.com/sketch -->
    <title>Pinterest</title>
    <desc>Created with Sketch.</desc>
    <defs></defs>
    <g id="Symbols" stroke="none" stroke-width="1" fill="none" fill-rule="evenodd">
        <g id="Footer" transform="translate(-1215.000000, -399.000000)" fill="#FFFFFF">
            <g id="Social" transform="translate(1075.000000, 398.000000)">
                <path d="M146.987779,14.8890183 C146.414617,17.7805542 145.712736,20.5523808 143.637452,22 C142.996288,17.629992 144.578555,14.3484751 145.313223,10.864563 C144.061252,8.83937711 145.463799,4.76185478 148.104959,5.76642596 C151.354497,7.001777 145.290151,13.2982416 149.361787,14.084374 C153.61193,14.9050618 155.347202,6.99684054 152.712114,4.42494086 C148.903986,0.711483035 141.625314,4.3397868 142.520272,9.65759663 C142.738851,10.9571218 144.135326,11.350805 143.078862,13.1452111 C140.641709,12.6256478 139.914328,10.7781748 140.007831,8.31487741 C140.158407,4.28425153 143.7771,1.46182613 147.406722,1.07061106 C151.996876,0.57696429 156.305306,2.68977247 156.900326,6.84010769 C157.569419,11.5235814 154.828685,16.595802 149.919163,16.2305034 C148.589476,16.131774 148.030885,15.498672 146.987779,14.8890183 L146.987779,14.8890183 Z" id="Pinterest"></path>
            </g>
        </g>
    </g>
</svg>