<?xml version="1.0" encoding="UTF-8"?>
<svg width="20px" height="17px" viewBox="0 0 20 17" version="1.1" xmlns="http://www.w3.org/2000/svg" xmlns:xlink="http://www.w3.org/1999/xlink">
    <!-- Generator: Sketch 50.2 (55047) - http://www.bohemiancoding.com/sketch -->
    <title>Twitter</title>
    <desc>Created with Sketch.</desc>
    <defs></defs>
    <g id="Symbols" stroke="none" stroke-width="1" fill="none" fill-rule="evenodd">
        <g id="Footer" transform="translate(-1075.000000, -400.000000)" fill="#FFFFFF">
            <g id="Social" transform="translate(1075.000000, 398.000000)">
                <path d="M20,4.01221516 C19.2646194,4.35345382 18.4727615,4.58418458 17.6432521,4.68862062 C18.4904106,4.15672548 19.1410754,3.31637974 19.4469938,2.31452247 C18.6539593,2.80634331 17.776209,3.16336881 16.8408048,3.35523966 C16.0924815,2.52096578 15.0264737,2 13.8463349,2 C11.5801859,2 9.74232263,3.92113722 9.74232263,6.29159226 C9.74232263,6.6291878 9.77997411,6.95585399 9.84939405,7.27037646 C6.43958113,7.0918637 3.41687257,5.38202729 1.39310507,2.78569898 C1.03894576,3.4196014 0.837745617,4.15672548 0.837745617,4.94363883 C0.837745617,6.43245946 1.56253677,7.74641046 2.6626662,8.51510822 C1.98964584,8.49324952 1.35663019,8.3001643 0.804800565,7.9783556 L0.804800565,8.03300236 C0.804800565,10.112008 2.21790799,11.8461319 4.09577597,12.2408029 C3.75102953,12.3391671 3.38981057,12.3913851 3.01447229,12.3913851 C2.75091187,12.3913851 2.4932345,12.3646689 2.24261678,12.3136653 C2.76503118,14.0186442 4.28050359,15.2597328 6.07600894,15.2949496 C4.67113778,16.4449604 2.90151783,17.1310808 0.978938699,17.1310808 C0.648311566,17.1310808 0.321214261,17.1116508 0,17.0715765 C1.81550771,18.2895921 3.97223203,19 6.29015178,19 C13.836922,19 17.9644664,12.4606043 17.9644664,6.78948496 C17.9644664,6.60247161 17.95976,6.41910136 17.9527003,6.23451675 C18.7539711,5.62975927 19.4505236,4.87320523 20,4.01342953 L20,4.01221516 L20,4.01221516 Z" id="Twitter"></path>
            </g>
        </g>
    </g>
</svg>