<?xml version="1.0" encoding="UTF-8"?>
<svg width="26px" height="20px" viewBox="0 0 26 20" version="1.1" xmlns="http://www.w3.org/2000/svg" xmlns:xlink="http://www.w3.org/1999/xlink">
    <!-- Generator: Sketch 50.2 (55047) - http://www.bohemiancoding.com/sketch -->
    <title>hanger</title>
    <desc>Created with Sketch.</desc>
    <defs></defs>
    <g id="Product-Page" stroke="none" stroke-width="1" fill="none" fill-rule="evenodd">
        <g transform="translate(-1030.000000, -6149.000000)" fill="#20C2DA" fill-rule="nonzero" id="tech-Specs" stroke="#20C2DA" stroke-width="0.5">
            <g transform="translate(-521.000000, 5467.000000)">
                <g id="hanger" transform="translate(1552.000000, 683.000000)">
                    <path d="M23.25,18 L0.75,18 C0.3,18 0,17.7 0,17.25 L0,15 C0,14.7 0.15,14.475 0.375,14.325 L10.5,8.55 L10.5,7.2 C9.15,6.6 8.25,5.25 8.25,3.75 C8.25,1.65 9.9,0 12,0 C14.1,0 15.75,1.65 15.75,3.75 C15.75,4.2 15.45,4.5 15,4.5 C14.55,4.5 14.25,4.2 14.25,3.75 C14.25,2.475 13.275,1.5 12,1.5 C10.725,1.5 9.75,2.475 9.75,3.75 C9.75,4.8 10.425,5.7 11.4,5.925 C11.7,6 12,6.3 12,6.675 L12,9 C12,9.3 11.85,9.525 11.625,9.675 L1.5,15.45 L1.5,16.5 L22.5,16.5 L22.5,15.45 L15.15,11.475 C14.775,11.25 14.625,10.8 14.85,10.425 C15.075,10.05 15.525,9.9 15.9,10.125 L23.625,14.325 C23.85,14.475 24,14.7 24,15 L24,17.25 C24,17.7 23.7,18 23.25,18 Z" id="Shape"></path>
                </g>
            </g>
        </g>
    </g>
</svg>