<?xml version="1.0" encoding="UTF-8"?>
<svg width="98px" height="98px" viewBox="0 0 98 98" version="1.1" xmlns="http://www.w3.org/2000/svg" xmlns:xlink="http://www.w3.org/1999/xlink">
    <!-- Generator: Sketch 50.2 (55047) - http://www.bohemiancoding.com/sketch -->
    <title>Group 3</title>
    <desc>Created with Sketch.</desc>
    <defs>
        <filter x="-48.4%" y="-38.7%" width="196.8%" height="196.8%" filterUnits="objectBoundingBox" id="filter-1">
            <feOffset dx="0" dy="6" in="SourceAlpha" result="shadowOffsetOuter1"></feOffset>
            <feGaussianBlur stdDeviation="9" in="shadowOffsetOuter1" result="shadowBlurOuter1"></feGaussianBlur>
            <feColorMatrix values="0 0 0 0 0   0 0 0 0 0   0 0 0 0 0  0 0 0 0.12 0" type="matrix" in="shadowBlurOuter1" result="shadowMatrixOuter1"></feColorMatrix>
            <feMerge>
                <feMergeNode in="shadowMatrixOuter1"></feMergeNode>
                <feMergeNode in="SourceGraphic"></feMergeNode>
            </feMerge>
        </filter>
    </defs>
    <g id="Product-Page" stroke="none" stroke-width="1" fill="none" fill-rule="evenodd">
        <g transform="translate(-671.000000, -2986.000000)" fill-rule="nonzero" id="Section-Overview">
            <g transform="translate(0.000000, 2609.000000)">
                <g id="button-circle-play" filter="url(#filter-1)" transform="translate(689.000000, 389.000000)">
                    <g id="Group-3">
                        <circle id="Oval-2" fill="#FFFFFF" cx="33" cy="31" r="24"></circle>
                        <path d="M31,0 C13.906,0 0,13.906 0,31 C0,48.094 13.906,62 31,62 C48.094,62 62,48.094 62,31 C62,13.906 48.094,0 31,0 Z M44.537,31.844 L22.537,45.844 C22.373,45.947 22.187,46 22,46 C21.835,46 21.669,45.959 21.519,45.877 C21.199,45.701 21,45.365 21,45 L21,17 C21,16.635 21.199,16.299 21.519,16.123 C21.839,15.948 22.228,15.961 22.538,16.156 L44.538,30.156 C44.825,30.34 45,30.658 45,31 C45,31.342 44.825,31.66 44.537,31.844 Z" id="Shape" fill="#20C2DA"></path>
                    </g>
                </g>
            </g>
        </g>
    </g>
</svg>